<svg xmlns="http://www.w3.org/2000/svg" viewBox="0 0 800 1600"><path fill="#c0bec2" d="m680 1072.2h20v400h-20z"/><path fill="#b0acb0" d="m700 1072.2h20v400h-20z"/><path d="m440 1152.2v40h20v-40z"/><path fill="#ffd800" d="m740 1132.2v20h-20v20h-20v20h60v-60zm-300-20v40h20v-40z"/><path d="m440 1092.2h20v20h-20zm160 0h-20v40h20v-20h20v-20z"/><path fill="#ffd800" d="m640 1092.2h-20v20h-20v20h-20v40h20v-20h20v-20h20v-20h20v-20z"/><path d="m680 1092.2h-20v20h-20v20h-20v20h-20v20h-20v20h40v-20h20v-20h20v-20h20v-20h20v-20z"/><path fill="#ffd800" d="m720 1092.2h-20v20h-20v20h-20v20h-20v20h-20v20h40v-20h20v-20h20v-20h20v-20h20v-20z"/><path d="m740 1092.2v20h-20v20h-20v20h-20v20h-20v20h40v-20h20v-20h20v-20h20v-40zm-300 220v40h20v-40z"/><path fill="#ffd800" d="m740 1292.2v20h-20v20h-20v20h60v-60zm-300-20v40h20v-40z"/><path d="m440 1252.2h20v20h-20zm160 0h-20v40h20v-20h20v-20z"/><path fill="#ffd800" d="m640 1252.2h-20v20h-20v20h-20v40h20v-20h20v-20h20v-20h20v-20z"/><path d="m680 1252.2h-20v20h-20v20h-20v20h-20v20h-20v20h40v-20h20v-20h20v-20h20v-20h20v-20z"/><path fill="#ffd800" d="m720 1252.2h-20v20h-20v20h-20v20h-20v20h-20v20h40v-20h20v-20h20v-20h20v-20h20v-20z"/><path d="m740 1252.2v20h-20v20h-20v20h-20v20h-20v20h40v-20h20v-20h20v-20h20v-40zm-40-420v40h20v-40zm-40 0v40h20v-40z"/><path fill="#b0acb0" d="m660 732.2v60h20v-60z"/><path fill="#e4b69d" d="m640 572.2v160h20v-160z"/><path fill="#efc7b0" d="m640 732.2v-160h-40v200h60v-40z"/><path d="m580 832.2v40h20v-40z"/><path fill="#b0acb0" d="m580 732.2v60h20v-60z"/><path fill="#15aef1" d="m640 532.2h-60v40h80v-40z"/><path d="m540 832.2v40h20v-40z"/><path fill="#0dccf1" d="m640 392.2v-20h-60v60h-20v-20h-20v60h20v20h20v40h80v-140z"/><path fill="#c0bec2" d="m740 852.2h-20v20h-20v-20h-20v20h-20v-20h-60v20h-20v-20h-20v20h-20v-20h-40v100h260v-100z"/><path fill="#989498" d="M740 792.2H500v60h40v-20h20v20h20v-20h20v20h60v-20h20v20h20v-20h20v20h40v-60z"/><path fill="#e4b69d" d="m520 332.2v-20h-20v60h40v-40z"/><path fill="#c89914" d="M600 1432.2H460v40h160v-40zM560 372.2v-160H460v20h60v20h-20v60h20v20h20v80h20v20h20v-60z"/><path fill="#fb0d41" d="m480 532.2h-80v100h100v-100z"/><path fill="#c11441" d="m480 492.2h-80v40h100v-40z"/><path fill="#0dccf1" d="m480 392.2h-80v20h100v-20z"/><path fill="#fff000" d="m440 112.2h-40v20h-20v40h20v-20h20v-20h40v-20z"/><path fill="#281857" d="M560 492.2v-20h-20v-100h-40v40H400v-40h-40v1060h60v-640h40v640h120v-480h-80v-160h80v-300h-20zm-60 20v120H400v-140h100v20z"/><path fill="#efc7b0" d="m480 252.2h-40v20h-60v-20h-20v80h40v60h100v-140zm-40-40h-80v20h100v-20z"/><path d="m340 1332.2h20v20h-20z"/><path fill="#ffd800" d="m340 1252.2v80h20v-80z"/><path d="m340 1172.2h20v20h-20z"/><path fill="#ffd800" d="m340 1092.2v80h20v-80z"/><path d="M500 232.2H340v40h20v-20h20v20h60v-20h80v-20z"/><path fill="#ffaf00" d="M540 132.2v-20h-20v-20H400v20h60v20h-40v20h-20v20h-20v-40h-20v40h-40v40h240v-80z"/><path fill="#ffaf00" d="m380 112.2h20v20h-20z"/><path fill="#c89914" d="M420 1432.2H300v40h140v-40z"/><path fill="#15aef1" d="m340 492.2h-40v40h60v-40z"/><path fill="#0dccf1" d="m340 372.2v20h-20v20h-20v80h60v-120z"/><path fill="#e4b69d" d="M340 532.2v120H220v20h140v-140z"/><path fill="#7d8589" d="m200 672.2h-20v40h40v-40z"/><path fill="#ffaf00" d="m180 1012.2h-20v80h40v-80z"/><path fill="#efc7b0" d="M320 532.2v80H160v60h60v-20h120v-120z"/><path fill="#e9e9ea" d="m200 1092.2h-60v80h80v-80z"/><path fill="#7d8589" d="m240 412.2v-20h-20v80h-40v-80h-20v20h-20v100h20v20h20v80h40v-80h20v-20h20v-100z"/><path fill="#ffaf00" d="M220 1172.2H120v80h120v-80z"/><path fill="#e9e9ea" d="m240 1252.2h-140v80h160v-80zm20 160h-180v40h200v-40z"/><path fill="#ffaf00" d="m260 1332.2h-180v80h200v-80zm20 120h-240v20h260v-20z"/><path d="m420 792.2v640h20v-640z"/></svg>